<svg width="24" height="24" viewBox="0 0 24 24" fill="none" xmlns="http://www.w3.org/2000/svg">
<path fill-rule="evenodd" clip-rule="evenodd" d="M12 4.915C13.09 3.635 14.76 2.825 16.5 2.825C19.58 2.825 22 5.245 22 8.325C22 12.1019 18.6056 15.1799 13.4627 19.8435L13.45 19.855L12 21.175L10.55 19.865L10.5105 19.8291C5.38263 15.1692 2 12.0953 2 8.325C2 5.245 4.42 2.825 7.5 2.825C9.24 2.825 10.91 3.635 12 4.915ZM12 18.475L12.1 18.375C16.86 14.065 20 11.215 20 8.325C20 6.325 18.5 4.825 16.5 4.825C14.96 4.825 13.46 5.815 12.94 7.185H11.07C10.54 5.815 9.04 4.825 7.5 4.825C5.5 4.825 4 6.325 4 8.325C4 11.215 7.14 14.065 11.9 18.375L12 18.475Z" fill="black" fill-opacity="0.6"/>
</svg>
