<svg width="14" height="20" viewBox="0 0 14 20" fill="none" xmlns="http://www.w3.org/2000/svg">
<path fill-rule="evenodd" clip-rule="evenodd" d="M7 12.5C8.66 12.5 10 11.16 10 9.5V3.5C10 1.84 8.66 0.5 7 0.5C5.34 0.5 4 1.84 4 3.5V9.5C4 11.16 5.34 12.5 7 12.5ZM6 3.5C6 2.95 6.45 2.5 7 2.5C7.55 2.5 8 2.95 8 3.5V9.5C8 10.05 7.55 10.5 7 10.5C6.45 10.5 6 10.05 6 9.5V3.5ZM7 14.5C9.76 14.5 12 12.26 12 9.5H14C14 13.03 11.39 15.93 8 16.42V19.5H6V16.42C2.61 15.93 0 13.03 0 9.5H2C2 12.26 4.24 14.5 7 14.5Z" fill="black" fill-opacity="0.6"/>
</svg>
